<svg width="40" height="41" viewBox="0 0 40 41" fill="none" xmlns="http://www.w3.org/2000/svg">
<g id="linkedin-fill">
<path id="Vector" d="M12.2374 8.54167C12.237 9.44782 11.8942 10.3167 11.2844 10.9571C10.6746 11.5975 9.84776 11.9571 8.9858 11.9566C8.12385 11.9562 7.29737 11.5958 6.68818 10.9547C6.07899 10.3136 5.737 9.44441 5.73743 8.53825C5.73786 7.63209 6.08068 6.76323 6.69048 6.1228C7.30028 5.48237 8.1271 5.12284 8.98905 5.12329C9.85101 5.12374 10.6775 5.48415 11.2867 6.12522C11.8959 6.76629 12.2379 7.63551 12.2374 8.54167ZM12.3349 14.4867H5.83493V35.875H12.3349V14.4867ZM22.6049 14.4867H16.1374V35.875H22.5399V24.6513C22.5399 18.3988 30.2912 17.8179 30.2912 24.6513V35.875H36.7099V22.3279C36.7099 11.7875 25.2374 12.1804 22.5399 17.3567L22.6049 14.4867Z" fill="#202E6F"/>
</g>
</svg>
