<svg width="40" height="41" viewBox="0 0 40 35" fill="none" xmlns="http://www.w3.org/2000/svg">
<g id="upwork">
<path id="Vector" d="M28.9487 10.3696C27.2541 10.4009 25.6214 11.0447 24.3251 12.1927C23.0289 13.3408 22.1483 14.923 21.8312 16.6733C20.2398 14.0732 18.9934 11.2569 18.1262 8.30249H14.4537V18.5525C14.4537 19.5221 14.0873 20.452 13.4352 21.1376C12.783 21.8232 11.8985 22.2083 10.9762 22.2083C10.0539 22.2083 9.16938 21.8232 8.51722 21.1376C7.86507 20.452 7.49869 19.5221 7.49869 18.5525V8.30249L3.80994 8.38791V18.6379C3.82071 20.6315 4.58435 22.5388 5.93285 23.9405C7.28135 25.3421 9.10426 26.1232 11.0006 26.1119C12.8969 26.1005 14.7112 25.2977 16.0445 23.8801C17.3777 22.4624 18.1207 20.546 18.1099 18.5525V16.8442C18.8896 18.4518 19.786 19.9939 20.7912 21.4567L18.5487 32.7487H22.3187L23.9437 24.5317C25.4497 25.5491 27.2074 26.0779 28.9974 26.0521C30.967 26.0521 32.8559 25.2295 34.2486 23.7654C35.6413 22.3013 36.4237 20.3156 36.4237 18.245C36.4237 16.1744 35.6413 14.1887 34.2486 12.7245C32.8559 11.2604 30.967 10.4379 28.9974 10.4379L28.9487 10.3696ZM28.9487 22.0375C27.4217 21.9857 25.9584 21.3824 24.8049 20.3292L25.1787 18.7746V18.6892C25.4387 16.9808 26.2512 14.2475 28.9974 14.2475C29.4789 14.243 29.9566 14.3385 30.4029 14.5286C30.8491 14.7187 31.2553 14.9996 31.5981 15.3551C31.9408 15.7107 32.2134 16.1339 32.4001 16.6005C32.5869 17.0671 32.6841 17.5679 32.6862 18.0742C32.6514 19.0991 32.2539 20.0735 31.5716 20.8065C30.8894 21.5396 29.9714 21.9786 28.9974 22.0375H28.9487Z" fill="#202E6F"/>
</g>
</svg>
