<svg width="409" height="458" viewBox="0 0 409 458" fill="none" xmlns="http://www.w3.org/2000/svg">
<path d="M74.9489 233.957H57.3857V430.233H74.9489V233.957Z" fill="#D6D6E3"/>
<path d="M363.004 254.597V73.5033C363.006 68.451 365.014 63.606 368.586 60.0334C372.159 56.4609 377.004 54.4532 382.056 54.4518C384.552 54.4546 387.024 54.9501 389.328 55.9097C391.633 56.8694 393.725 58.2744 395.486 60.0442C397.247 61.814 398.641 63.9139 399.588 66.2235C400.536 68.533 401.019 71.0069 401.009 73.5033V292.601C401.007 297.654 399 302.498 395.427 306.071C391.855 309.644 387.01 311.651 381.957 311.653H264.073C259.02 311.651 254.175 309.644 250.603 306.071C247.03 302.498 245.022 297.654 245.021 292.601C245.022 287.549 247.03 282.704 250.603 279.131C254.175 275.559 259.02 273.551 264.073 273.55H343.953C346.452 273.569 348.929 273.092 351.243 272.147C353.556 271.203 355.66 269.809 357.431 268.047C359.203 266.284 360.608 264.188 361.564 261.88C362.521 259.571 363.01 257.096 363.004 254.597Z" fill="#AEBEE1"/>
<path d="M363.004 254.597V73.5033C363.006 68.451 365.014 63.606 368.586 60.0334C372.159 56.4609 377.004 54.4532 382.056 54.4518C384.552 54.4546 387.024 54.9501 389.328 55.9097C391.633 56.8694 393.725 58.2744 395.486 60.0442C397.247 61.814 398.641 63.9139 399.588 66.2235C400.536 68.533 401.019 71.0069 401.009 73.5033V292.601C401.007 297.654 399 302.498 395.427 306.071C391.855 309.644 387.01 311.651 381.957 311.653H264.073C259.02 311.651 254.175 309.644 250.603 306.071C247.03 302.498 245.022 297.654 245.021 292.601C245.022 287.549 247.03 282.704 250.603 279.131C254.175 275.559 259.02 273.551 264.073 273.55H343.953C346.452 273.569 348.929 273.092 351.243 272.147C353.556 271.203 355.66 269.809 357.431 268.047C359.203 266.284 360.608 264.188 361.564 261.88C362.521 259.571 363.01 257.096 363.004 254.597Z" fill="#506387"/>
<path d="M245.121 291.61C245.378 286.732 247.498 282.139 251.043 278.778C254.588 275.418 259.287 273.546 264.172 273.55H344.052C349.105 273.548 353.95 271.541 357.522 267.968C361.095 264.395 363.103 259.551 363.104 254.498V73.5033C363.107 68.6039 364.994 63.8931 368.374 60.3466C371.754 56.8 376.369 54.6894 381.263 54.4518V291.61H245.121Z" fill="#D6D6E3"/>
<path d="M197.391 233.957H179.828V434.797H197.391V233.957Z" fill="#D6D6E3"/>
<path opacity="0.1" d="M197.391 233.957H179.828V248.445H197.391V233.957Z" fill="black"/>
<path d="M62.7374 212.126C62.6879 212.837 62.7798 213.551 63.008 214.226C63.2362 214.902 63.596 215.525 64.0666 216.06C64.5373 216.595 65.1094 217.032 65.7499 217.344C66.3904 217.657 67.0866 217.84 67.7981 217.881H121.481V212.321H76.828C76.3613 212.28 75.9122 212.122 75.5223 211.862C75.1324 211.602 74.8141 211.249 74.5967 210.834C74.3794 210.419 74.2699 209.955 74.2784 209.487C74.2869 209.018 74.4131 208.56 74.6454 208.153L115.131 125.892C115.421 125.297 115.874 124.795 116.436 124.444C116.999 124.093 117.649 123.907 118.311 123.908H138.356V114.485H113.151C112.696 114.502 112.255 114.64 111.871 114.884C111.488 115.128 111.176 115.471 110.968 115.875L64.6283 205.484C63.3882 207.477 62.733 209.779 62.7374 212.126Z" fill="#506387"/>
<path d="M161.173 197.243L161.868 198.434L168.714 193.869L147.48 30.4384H142.022C142.022 30.4384 141.824 31.2324 141.426 32.621C137.854 46.8115 119.794 126.789 161.173 197.243Z" fill="#506387"/>
<path opacity="0.1" d="M141.525 32.621L161.268 197.242L161.962 198.433L168.808 193.868L147.578 30.4384H142.121C141.817 31.133 141.616 31.8683 141.525 32.621Z" fill="black"/>
<path d="M154.91 28.7874L142.003 30.3331L162.168 198.713L175.075 197.167L154.91 28.7874Z" fill="#D6D6E3"/>
<path d="M219.222 212.226C219.218 212.423 219.254 212.618 219.328 212.8C219.401 212.982 219.511 213.148 219.649 213.287C219.788 213.426 219.954 213.535 220.136 213.609C220.318 213.682 220.514 213.718 220.71 213.714H222.993C223.189 213.718 223.384 213.682 223.567 213.609C223.749 213.535 223.914 213.426 224.053 213.287C224.192 213.148 224.302 212.982 224.375 212.8C224.449 212.618 224.485 212.423 224.481 212.226V212.028C224.451 211.652 224.282 211.301 224.007 211.044C223.731 210.786 223.369 210.642 222.993 210.638H220.71C220.366 210.647 220.035 210.769 219.766 210.984C219.498 211.199 219.306 211.496 219.222 211.829V212.226Z" fill="#E3EDF9"/>
<path d="M212.375 212.226C212.371 212.423 212.407 212.618 212.48 212.8C212.554 212.982 212.663 213.148 212.802 213.287C212.941 213.426 213.107 213.535 213.289 213.609C213.471 213.682 213.666 213.718 213.863 213.714H216.145C216.342 213.718 216.537 213.682 216.719 213.609C216.902 213.535 217.067 213.426 217.206 213.287C217.345 213.148 217.455 212.982 217.528 212.8C217.601 212.618 217.637 212.423 217.634 212.226C217.649 212.086 217.614 211.946 217.535 211.829C217.444 211.499 217.25 211.207 216.983 210.993C216.716 210.779 216.388 210.655 216.047 210.638H213.665C213.373 210.641 213.088 210.727 212.842 210.885C212.597 211.043 212.4 211.267 212.276 211.531C212.375 211.829 212.276 212.028 212.375 212.226Z" fill="#E3EDF9"/>
<path d="M206.222 212.226C206.219 212.423 206.255 212.618 206.328 212.8C206.401 212.982 206.511 213.148 206.65 213.287C206.789 213.426 206.954 213.535 207.137 213.609C207.319 213.682 207.514 213.718 207.711 213.715H209.993C210.19 213.718 210.385 213.682 210.567 213.609C210.749 213.535 210.915 213.426 211.054 213.287C211.193 213.148 211.302 212.982 211.376 212.8C211.449 212.618 211.485 212.423 211.481 212.226C211.497 212.023 211.464 211.818 211.383 211.631C211.248 211.375 211.049 211.158 210.805 211.002C210.562 210.845 210.282 210.754 209.993 210.738H207.711C207.514 210.734 207.319 210.77 207.137 210.844C206.954 210.917 206.789 211.026 206.65 211.165C206.511 211.304 206.401 211.47 206.328 211.652C206.255 211.834 206.219 212.03 206.222 212.226Z" fill="#E3EDF9"/>
<path d="M199.376 212.226C199.372 212.423 199.408 212.618 199.482 212.8C199.555 212.982 199.665 213.148 199.804 213.287C199.943 213.426 200.108 213.535 200.291 213.609C200.473 213.682 200.668 213.718 200.865 213.715H203.147C203.343 213.718 203.539 213.682 203.721 213.609C203.903 213.535 204.069 213.426 204.208 213.287C204.347 213.148 204.456 212.982 204.53 212.8C204.603 212.618 204.639 212.423 204.635 212.226C204.628 211.906 204.524 211.595 204.338 211.333L204.14 211.135C203.853 210.833 203.459 210.655 203.043 210.639H200.76C200.344 210.655 199.95 210.833 199.664 211.135C199.465 211.464 199.365 211.842 199.376 212.226Z" fill="#E3EDF9"/>
<path opacity="0.1" d="M219.222 211.829V212.226C219.218 212.423 219.254 212.618 219.328 212.8C219.401 212.982 219.511 213.148 219.649 213.287C219.788 213.426 219.954 213.535 220.136 213.609C220.318 213.682 220.514 213.718 220.71 213.715H222.993C223.189 213.718 223.384 213.682 223.567 213.609C223.749 213.535 223.914 213.426 224.053 213.287C224.192 213.148 224.302 212.982 224.375 212.8C224.449 212.618 224.485 212.423 224.481 212.226V212.028L219.222 211.829Z" fill="black"/>
<path opacity="0.1" d="M212.473 211.631C212.392 211.818 212.359 212.023 212.374 212.226C212.371 212.423 212.407 212.618 212.48 212.8C212.554 212.982 212.663 213.148 212.802 213.287C212.941 213.426 213.107 213.535 213.289 213.609C213.471 213.682 213.666 213.718 213.863 213.715H216.145C216.342 213.718 216.537 213.682 216.719 213.609C216.901 213.535 217.067 213.426 217.206 213.287C217.345 213.148 217.454 212.982 217.528 212.8C217.601 212.618 217.637 212.423 217.634 212.226C217.648 212.086 217.614 211.946 217.535 211.829L212.473 211.631Z" fill="black"/>
<path opacity="0.1" d="M206.421 211.432C206.337 211.545 206.277 211.673 206.243 211.809C206.209 211.946 206.202 212.087 206.222 212.226C206.219 212.423 206.255 212.618 206.328 212.8C206.402 212.982 206.511 213.148 206.65 213.287C206.789 213.426 206.955 213.535 207.137 213.609C207.319 213.682 207.514 213.718 207.711 213.715H209.993C210.19 213.718 210.385 213.682 210.567 213.609C210.75 213.535 210.915 213.426 211.054 213.287C211.193 213.148 211.302 212.982 211.376 212.8C211.449 212.618 211.485 212.423 211.482 212.226C211.498 212.023 211.464 211.818 211.383 211.631L206.421 211.432Z" fill="black"/>
<path opacity="0.1" d="M199.376 212.232C199.373 212.428 199.409 212.623 199.482 212.806C199.556 212.988 199.665 213.153 199.804 213.292C199.943 213.431 200.108 213.541 200.291 213.614C200.473 213.688 200.668 213.724 200.865 213.72H203.147C203.344 213.724 203.539 213.688 203.721 213.614C203.903 213.541 204.069 213.431 204.208 213.292C204.347 213.153 204.456 212.988 204.53 212.806C204.603 212.623 204.639 212.428 204.636 212.232C204.628 211.911 204.525 211.6 204.338 211.339L199.675 211.14C199.472 211.468 199.369 211.847 199.376 212.232Z" fill="black"/>
<path d="M185.583 218.378H229.839V216.394C229.833 215.492 229.479 214.627 228.85 213.979C228.221 213.332 227.367 212.953 226.465 212.922L190.942 211.73C189.549 211.687 188.196 212.194 187.175 213.141C186.153 214.088 185.546 215.4 185.484 216.791V216.99L185.583 218.378Z" fill="#D6D6E3"/>
<path d="M231.923 188.311L227.954 204.386C227.954 204.386 224.381 203.592 219.023 202.204C200.865 197.54 162.463 186.228 177.844 177.893C191.141 170.748 210.689 177.694 222.2 183.152C225.234 184.529 228.183 186.086 231.031 187.816C231.338 187.964 231.635 188.13 231.923 188.311Z" fill="#F8B9BF"/>
<path opacity="0.1" d="M230.832 192.876L227.953 204.486C227.953 204.486 224.381 203.692 219.023 202.303L222.298 183.252C225.333 184.628 228.282 186.186 231.13 187.916L230.832 192.876Z" fill="black"/>
<path d="M230.831 205.577L219.718 202.898L223.191 182.457L232.121 184.639L230.831 205.577Z" fill="#D9DFE8"/>
<path opacity="0.1" d="M230.831 205.577L226.068 204.386L227.853 183.648L232.12 184.635L230.831 205.577Z" fill="black"/>
<path d="M338.198 121.133C338.198 121.133 316.868 108.829 307.337 144.155C297.806 179.481 296.917 195.853 296.917 195.853L229.442 182.362L227.259 206.967C227.259 206.967 299.398 230.286 308.428 228.599C317.458 226.913 346.926 177.496 346.926 177.496C346.926 177.496 373.821 139.392 338.198 121.133Z" fill="#4C5C7A"/>
<g opacity="0.1">
<path d="M231.923 188.311L227.954 204.386C227.954 204.386 224.381 203.592 219.023 202.204C200.865 197.54 162.463 186.228 177.844 177.893C191.141 170.748 210.689 177.694 222.2 183.152C225.234 184.529 228.183 186.086 231.031 187.816C231.338 187.964 231.635 188.13 231.923 188.311Z" fill="black"/>
<path opacity="0.1" d="M230.832 192.876L227.954 204.486C227.954 204.486 224.381 203.692 219.023 202.303L222.298 183.252C225.333 184.628 228.282 186.186 231.13 187.915L230.832 192.876Z" fill="black"/>
<path d="M230.832 205.577L219.718 202.898L223.191 182.457L232.122 184.639L230.832 205.577Z" fill="black"/>
<path opacity="0.1" d="M230.833 205.577L226.069 204.386L227.855 183.648L232.122 184.635L230.833 205.577Z" fill="black"/>
<path d="M338.198 122.026C338.198 122.026 316.868 109.722 307.337 145.048C297.806 180.374 296.918 196.846 296.918 196.846L229.442 183.355L227.259 207.96C227.259 207.96 299.398 231.279 308.429 229.592C317.459 227.905 346.926 178.488 346.926 178.488C346.926 178.488 373.821 140.285 338.198 122.026Z" fill="black"/>
</g>
<path d="M202.352 395.502L174.766 411.379C174.766 411.379 139.043 415.744 162.859 424.08C186.675 432.415 241.944 423.683 241.944 423.683C241.944 423.683 238.873 398.875 234.601 395.403C230.236 391.93 202.352 395.502 202.352 395.502Z" fill="#68739D"/>
<path d="M309.619 217.584C309.619 217.584 295.926 224.729 271.615 230.981C257.326 234.553 239.464 237.133 227.161 238.522C220.853 239.212 214.893 241.758 210.035 245.839C205.177 249.92 201.64 255.352 199.872 261.445C198.782 265.057 198.679 268.895 199.575 272.559C203.643 286.749 197.591 401.954 197.591 401.954L239.466 405.824C239.466 405.824 233.809 384.588 242.442 373.871C251.075 363.154 240.954 281.687 240.954 281.687C240.954 281.687 256.136 275.435 301.388 275.038C343.362 285.755 360.628 239.911 354.178 227.011C347.523 214.112 309.619 217.584 309.619 217.584Z" fill="#6394E2"/>
<g opacity="0.1">
<path d="M202.353 395.502L174.767 411.379C174.767 411.379 139.044 415.744 162.86 424.08C186.676 432.415 241.945 423.683 241.945 423.683C241.945 423.683 238.874 398.875 234.602 395.403C230.237 391.93 202.353 395.502 202.353 395.502Z" fill="black"/>
<path d="M309.62 217.584C309.62 217.584 295.927 224.729 271.616 230.98C257.327 234.553 239.465 237.132 227.162 238.522C220.854 239.212 214.894 241.758 210.036 245.839C205.177 249.92 201.641 255.352 199.873 261.445C198.783 265.057 198.68 268.895 199.576 272.559C203.644 286.749 197.592 401.954 197.592 401.954L239.467 405.823C239.467 405.823 233.81 384.588 242.443 373.871C251.076 363.154 240.955 281.687 240.955 281.687C240.955 281.687 256.137 275.435 301.389 275.038C343.363 285.755 360.628 239.911 354.179 227.011C347.524 214.112 309.62 217.584 309.62 217.584Z" fill="black"/>
</g>
<path d="M215.252 405.128L187.667 421.004C187.667 421.004 152.049 425.369 175.76 433.705C199.47 442.041 254.845 433.308 254.845 433.308C254.845 433.308 251.774 408.501 247.502 405.028C243.136 401.556 215.252 405.128 215.252 405.128Z" fill="#68739D"/>
<path d="M314.184 284.664C268.936 285.061 253.75 291.312 253.75 291.312C253.75 291.312 263.872 372.78 255.239 383.497C246.606 394.214 252.262 415.449 252.262 415.449L210.39 411.577C210.39 411.577 210.489 410.188 210.589 407.806C211.576 387.762 216.047 294.784 212.375 282.183C211.48 278.518 211.583 274.681 212.672 271.069C214.419 264.955 217.947 259.5 222.808 255.4C227.668 251.299 233.639 248.74 239.96 248.048C252.264 246.56 270.122 244.079 284.415 240.506L285.109 240.308C309.02 234.156 322.419 227.11 322.419 227.11C322.419 227.11 360.325 223.736 366.775 236.537C367.686 238.562 368.127 240.767 368.065 242.987C368.562 260.452 350.7 294.09 314.184 284.664Z" fill="#6394E2"/>
<path d="M251.074 208.357L249.586 224.928C249.586 224.928 245.915 224.631 240.457 224.134C221.801 222.15 182.107 216.692 196.101 206.174C208.108 197.144 228.549 201.113 240.754 204.784C245.219 206.174 248.693 207.464 250.181 208.059L251.074 208.357Z" fill="#F8B9BF"/>
<path d="M362.313 100.098C362.313 100.098 356.657 104.464 349.81 109.326C342.268 111.013 333.536 112.397 327.285 113.394C329.567 106.25 328.177 98.2121 325.598 91.0675C322.834 83.701 319.06 76.7545 314.383 70.4278L352.288 58.6196C349.312 66.1613 350.7 74.6944 353.181 82.236C355.483 88.5411 358.55 94.5398 362.313 100.098Z" fill="#F8B9BF"/>
<path opacity="0.1" d="M250.577 213.019L249.481 224.927C249.481 224.927 245.81 224.63 240.352 224.133L240.754 204.783C245.219 206.173 248.693 207.463 250.181 208.058L250.577 213.019Z" fill="black"/>
<path d="M252.558 225.622L241.151 224.634L241.548 203.896L250.578 204.789L252.558 225.622Z" fill="#D9DFE8"/>
<path opacity="0.1" d="M362.31 100.096C362.31 100.096 356.654 104.463 349.806 109.325C342.265 111.012 333.533 112.396 327.281 113.393C329.564 106.248 328.174 98.211 325.594 91.0664C334.823 88.3869 348.119 84.9144 353.18 82.1362C355.501 88.4636 358.566 94.4926 362.31 100.096Z" fill="black"/>
<path d="M354.767 82.5333C354.767 82.5333 361.118 96.9212 365.087 103.47C369.057 110.019 318.648 115.974 318.648 115.974C318.648 115.974 313.384 97.8151 315.87 95.7312C318.45 93.6473 350.502 86.7012 354.767 82.5333Z" fill="#D9DFE8"/>
<path opacity="0.1" d="M368.263 243.087C366.167 246.831 363.525 250.242 360.425 253.208C338.197 274.344 301.681 252.316 285.209 240.209C309.119 234.057 322.519 227.011 322.519 227.011C322.519 227.011 360.425 223.637 366.875 236.438C367.808 238.53 368.282 240.797 368.263 243.087Z" fill="black"/>
<path d="M360.525 251.819C335.221 275.832 291.561 243.98 279.752 234.653C277.867 233.164 276.776 232.172 276.776 232.172C281.439 227.805 285.507 218.577 288.783 207.265C291.755 196.456 293.943 185.446 295.331 174.322C297.593 155.507 304.182 137.472 314.582 121.631C315.971 119.547 317.261 117.662 318.65 115.975C328.175 103.869 344.25 96.1293 344.25 96.1293C378.186 86.2065 382.748 136.516 381.761 137.904C380.966 139.392 389.995 223.836 360.525 251.819Z" fill="#506387"/>
<path opacity="0.1" d="M363.799 183.052C363.799 183.052 341.973 236.239 333.336 239.318C328.374 241.005 301.682 237.73 279.851 234.655C277.971 233.163 276.874 232.171 276.874 232.171C281.538 227.804 285.606 218.576 288.881 207.264L317.062 208.654C317.062 208.654 315.474 192.381 319.642 155.963C323.81 119.546 346.733 128.576 346.733 128.576C384.538 141.277 363.799 183.052 363.799 183.052Z" fill="black"/>
<path opacity="0.1" d="M252.564 225.623L247.602 225.226L246.312 204.386L250.578 204.783L252.564 225.623Z" fill="black"/>
<path d="M346.135 126.19C346.135 126.19 323.212 117.16 319.044 153.577C314.876 189.994 316.465 206.267 316.465 206.267L247.695 202.992L249.283 227.7C249.283 227.7 324.102 240.004 332.834 236.929C341.567 233.853 363.304 180.671 363.304 180.671C363.304 180.671 384.041 138.896 346.135 126.19Z" fill="#506387"/>
<path opacity="0.1" d="M347.624 72.2135C346.637 66.7558 352.287 66.8555 354.371 61.6951L316.466 73.5033C319.113 77.0445 321.469 80.7943 323.511 84.7159C325.484 85.3125 327.512 85.7115 329.564 85.9071C338.494 86.7999 341.372 77.8697 347.624 72.2135Z" fill="black"/>
<path d="M361.59 54.3059C363.183 37.0617 350.496 21.7905 333.252 20.1969C316.007 18.6032 300.736 31.2906 299.143 48.5349C297.549 65.7792 310.236 81.0503 327.481 82.6439C344.725 84.2376 359.996 71.5502 361.59 54.3059Z" fill="#F8B9BF"/>
<path opacity="0.1" d="M299.502 23.195C299.899 26.4701 303.372 28.4542 306.547 29.1485C309.722 29.8428 313.196 29.9426 315.974 31.6295C320.439 34.4077 321.63 40.5597 321.129 45.8188C320.832 48.7956 320.335 52.4677 322.816 54.1546C323.563 54.6397 324.412 54.9453 325.297 55.0474C327.847 55.5422 330.457 55.6425 333.037 55.3446C334.504 55.0155 336.022 54.9819 337.502 55.2459C339.883 55.9402 341.273 58.4266 341.67 60.8023C342.166 63.1835 341.869 65.6644 342.266 68.0412C342.774 71.0555 344.184 73.8449 346.31 76.0415C348.436 78.2381 351.178 79.7386 354.174 80.3452C355.57 80.6635 357.031 80.5243 358.342 79.9481C360.028 79.0553 360.921 77.1699 361.617 75.3832L366.975 62.4837C369.356 56.7287 371.837 50.874 373.127 44.722C375.043 35.4738 374.285 25.8712 370.944 17.0376C369.654 13.6638 367.873 10.29 364.891 8.30588C358.937 4.23783 350.601 7.01603 343.755 4.73358C341.473 3.93949 339.489 2.64964 337.206 1.85555C332.344 0.168664 326.886 1.06146 322.223 3.2452C317.559 5.42894 313.788 8.90145 309.719 11.9769C306.344 14.6608 298.803 17.5388 299.502 23.195Z" fill="black"/>
<path d="M300.297 22.4997C300.694 25.7748 304.166 27.7589 307.341 28.4532C310.517 29.1474 313.99 29.2472 316.768 30.9341C321.233 33.7123 322.425 39.8643 321.923 45.1235C321.626 48.1002 321.129 51.7723 323.61 53.4592C324.357 53.9444 325.206 54.25 326.091 54.352C328.641 54.8469 331.251 54.9472 333.831 54.6493C335.298 54.3202 336.816 54.2866 338.296 54.5506C340.678 55.2448 342.067 57.7313 342.464 60.107C342.96 62.4881 342.663 64.9691 343.06 67.3459C343.568 70.3602 344.978 73.1496 347.104 75.3462C349.23 77.5428 351.972 79.0433 354.968 79.6499C356.364 79.9682 357.825 79.829 359.136 79.2528C360.823 78.36 361.715 76.4746 362.411 74.6879L367.769 61.7884C370.15 56.0334 372.631 50.1787 373.921 44.0267C375.837 34.7785 375.08 25.1759 371.738 16.3422C370.448 12.9684 368.667 9.59467 365.685 7.61055C359.731 3.5425 351.396 6.32072 344.549 4.03827C342.267 3.24418 340.283 1.95433 338 1.16024C333.138 -0.526649 327.681 0.366149 323.017 2.54989C318.353 4.73363 314.582 8.20612 310.513 11.2816C307.138 13.9654 299.597 16.8435 300.297 22.4997Z" fill="#FF4701"/>
<path opacity="0.1" d="M326.191 146.239C326.191 146.239 314.184 192.678 302.376 196.946C290.568 201.213 295.727 202.502 295.727 202.502" fill="black"/>
<path d="M326.786 316.317H313.787V401.754H326.786V316.317Z" fill="#D6D6E3"/>
<path opacity="0.1" d="M326.786 316.317H313.787V322.668H326.786V316.317Z" fill="black"/>
<path d="M287.789 315.921V317.706C287.795 318.81 288.236 319.866 289.017 320.646C289.797 321.426 290.853 321.867 291.956 321.874H348.516C349.62 321.867 350.676 321.426 351.456 320.646C352.237 319.866 352.678 318.81 352.684 317.706V315.921C352.678 314.817 352.237 313.761 351.456 312.981C350.676 312.201 349.62 311.759 348.516 311.753H291.956C290.853 311.759 289.797 312.201 289.017 312.981C288.236 313.761 287.795 314.817 287.789 315.921Z" fill="#D6D6E3"/>
<path opacity="0.1" d="M288.781 313.241H351.891C351.495 312.76 350.993 312.376 350.426 312.118C349.858 311.86 349.24 311.735 348.616 311.752H292.056C291.433 311.735 290.814 311.86 290.247 312.118C289.679 312.376 289.178 312.76 288.781 313.241Z" fill="black"/>
<path d="M271.814 397.09H368.76C370.075 397.093 371.335 397.617 372.265 398.547C373.195 399.477 373.719 400.737 373.722 402.052V402.449C373.719 403.763 373.195 405.023 372.265 405.953C371.335 406.883 370.075 407.407 368.76 407.411H271.814C270.499 407.407 269.239 406.883 268.309 405.953C267.38 405.023 266.856 403.763 266.852 402.449V402.052C266.873 400.742 267.403 399.493 268.329 398.567C269.255 397.641 270.504 397.111 271.814 397.09Z" fill="#D6D6E3"/>
<path d="M367.668 420.409C371.285 420.409 374.217 417.477 374.217 413.86C374.217 410.243 371.285 407.311 367.668 407.311C364.051 407.311 361.119 410.243 361.119 413.86C361.119 417.477 364.051 420.409 367.668 420.409Z" fill="#535461"/>
<path d="M272.905 420.409C276.522 420.409 279.454 417.477 279.454 413.86C279.454 410.243 276.522 407.311 272.905 407.311C269.288 407.311 266.356 410.243 266.356 413.86C266.356 417.477 269.288 420.409 272.905 420.409Z" fill="#535461"/>
<path d="M320.237 420.409C323.854 420.409 326.786 417.477 326.786 413.86C326.786 410.243 323.854 407.311 320.237 407.311C316.62 407.311 313.688 410.243 313.688 413.86C313.688 417.477 316.62 420.409 320.237 420.409Z" fill="#535461"/>
<path d="M314.084 211.432H401.01C403.036 211.433 404.979 212.238 406.411 213.671C407.844 215.104 408.649 217.046 408.65 219.072V219.668C408.649 221.694 407.844 223.637 406.411 225.07C404.979 226.502 403.036 227.307 401.01 227.308H314.084C312.058 227.307 310.116 226.502 308.683 225.07C307.25 223.637 306.445 221.694 306.444 219.668V219.072C306.445 217.046 307.25 215.104 308.683 213.671C310.116 212.238 312.058 211.433 314.084 211.432Z" fill="#D6D6E3"/>
<path opacity="0.1" d="M326.786 397.09C326.786 397.09 321.726 402.15 313.787 397.09H326.786Z" fill="black"/>
<path opacity="0.1" d="M408.646 219.47V220.759C408.647 221.607 408.482 222.447 408.158 223.23C407.834 224.013 407.359 224.725 406.76 225.324C406.161 225.924 405.449 226.399 404.666 226.722C403.882 227.046 403.043 227.212 402.195 227.21H313.093C312.245 227.212 311.406 227.046 310.622 226.722C309.839 226.399 309.127 225.924 308.528 225.324C307.929 224.725 307.454 224.013 307.13 223.23C306.807 222.447 306.641 221.607 306.643 220.759V219.47H408.646Z" fill="black"/>
<path d="M238.67 233.957H221.107V457.719H238.67V233.957Z" fill="#D6D6E3"/>
<path opacity="0.1" d="M238.67 233.957H221.107V248.445H238.67V233.957Z" fill="black"/>
<path d="M32.5258 233.957H14.9626V457.719H32.5258V233.957Z" fill="#D6D6E3"/>
<path d="M247.44 217.465H0V247.308H247.44V217.465Z" fill="#D6D6E3"/>
</svg>
