<svg xmlns="http://www.w3.org/2000/svg" width="40" height="42" viewBox="0 0 40 42" fill="none">
<path d="M12.2275 9.09172C12.2271 9.99787 11.8843 10.8667 11.2745 11.5072C10.6647 12.1476 9.83787 12.5071 8.97591 12.5067C8.11396 12.5062 7.28748 12.1458 6.67829 11.5047C6.0691 10.8637 5.72711 9.99446 5.72754 9.0883C5.72797 8.18214 6.07079 7.31328 6.68059 6.67285C7.29039 6.03242 8.11721 5.67289 8.97916 5.67334C9.84112 5.67379 10.6676 6.0342 11.2768 6.67527C11.886 7.31634 12.228 8.18556 12.2275 9.09172ZM12.325 15.0367H5.82504V36.425H12.325V15.0367ZM22.595 15.0367H16.1275V36.425H22.53V25.2013C22.53 18.9488 30.2813 18.368 30.2813 25.2013V36.425H36.7V22.878C36.7 12.3375 25.2275 12.7305 22.53 17.9067L22.595 15.0367Z" fill="white"/>
</svg>