<svg xmlns="http://www.w3.org/2000/svg" width="58" height="68" viewBox="0 0 58 68" fill="none">
  <path d="M56.0396 31.4771C55.6651 31.8529 55.2201 32.1511 54.73 32.3546C54.24 32.5581 53.7147 32.6628 53.1841 32.6628C52.6536 32.6628 52.1282 32.5581 51.6382 32.3546C51.1482 32.1511 50.7032 31.8529 50.3287 31.4771L33.0312 14.1797V63.5625C33.0312 64.6317 32.6065 65.657 31.8505 66.413C31.0945 67.169 30.0691 67.5938 29 67.5938C27.9308 67.5938 26.9055 67.169 26.1495 66.413C25.3934 65.657 24.9687 64.6317 24.9687 63.5625V14.1797L7.66459 31.4771C6.90727 32.2344 5.88013 32.6599 4.80912 32.6599C3.73811 32.6599 2.71097 32.2344 1.95365 31.4771C1.19633 30.7198 0.770874 29.6927 0.770874 28.6217C0.770874 27.5506 1.19633 26.5235 1.95365 25.7662L26.1411 1.57868C26.5157 1.20286 26.9607 0.904672 27.4507 0.701207C27.9407 0.497741 28.466 0.393005 28.9966 0.393005C29.5272 0.393005 30.0525 0.497741 30.5425 0.701207C31.0326 0.904672 31.4776 1.20286 31.8521 1.57868L56.0396 25.7662C56.4154 26.1407 56.7136 26.5857 56.9171 27.0757C57.1205 27.5657 57.2253 28.0911 57.2253 28.6217C57.2253 29.1522 57.1205 29.6776 56.9171 30.1676C56.7136 30.6576 56.4154 31.1026 56.0396 31.4771Z" fill="white" fill-opacity="0.6"/>
</svg>