<svg xmlns="http://www.w3.org/2000/svg" width="40" height="42" viewBox="0 0 40 42" fill="none">
  <path d="M29.3388 10.9196C27.6441 10.951 26.0114 11.5948 24.7152 12.7428C23.419 13.8908 22.5383 15.473 22.2213 17.2234C20.6299 14.6232 19.3834 11.807 18.5163 8.85254H14.8438V19.1025C14.8438 20.0721 14.4774 21.002 13.8252 21.6876C13.1731 22.3732 12.2886 22.7584 11.3663 22.7584C10.444 22.7584 9.55946 22.3732 8.9073 21.6876C8.25514 21.002 7.88876 20.0721 7.88876 19.1025V8.85254L4.20001 8.93796V19.188C4.21079 21.1815 4.97442 23.0889 6.32293 24.4905C7.67143 25.8922 9.49434 26.6732 11.3906 26.6619C13.2869 26.6506 15.1013 25.8478 16.4346 24.4301C17.7678 23.0125 18.5108 21.0961 18.5 19.1025V17.3942C19.2797 19.0019 20.1761 20.5439 21.1813 22.0067L18.9388 33.2988H22.7088L24.3338 25.0817C25.8398 26.0992 27.5975 26.628 29.3875 26.6021C31.3571 26.6021 33.246 25.7796 34.6387 24.3155C36.0314 22.8514 36.8138 20.8656 36.8138 18.795C36.8138 16.7245 36.0314 14.7387 34.6387 13.2746C33.246 11.8105 31.3571 10.988 29.3875 10.988L29.3388 10.9196ZM29.3388 22.5875C27.8118 22.5357 26.3484 21.9324 25.195 20.8792L25.5688 19.3246V19.2392C25.8288 17.5309 26.6413 14.7975 29.3875 14.7975C29.869 14.793 30.3466 14.8886 30.7929 15.0786C31.2392 15.2687 31.6454 15.5496 31.9882 15.9052C32.3309 16.2607 32.6035 16.684 32.7902 17.1506C32.9769 17.6172 33.0741 18.118 33.0763 18.6242C33.0414 19.6491 32.644 20.6235 31.9617 21.3566C31.2794 22.0897 30.3615 22.5286 29.3875 22.5875H29.3388Z" fill="white"/>
</svg>